PathFileType	4	(X/Y/Z)	D:\TRACE\v60_Jaco2_6-2-23\BothDRS_Motion1_2-v60.trc
DataRate	CameraRate	NumFrames	NumMarkers	Units	OrigDataRate	OrigDataStartFrame	OrigNumFrames
100.00	100.00	      35	9	mm	100.00	3486	      6970
Frame#	Time	front left toe			Front right toe			aft left toe			aft right toe			Arm			FL body			FR body			AL Body			AR Body			
		X1	Y1	Z1	X2	Y2	Z2	X3	Y3	Z3	X4	Y4	Z4	X5	Y5	Z5	X6	Y6	Z6	X7	Y7	Z7	X8	Y8	Z8	X9	Y9	Z9	

3486	34.850	-169.24159	140.53357	-259.06427	207.12776	7.67425	-248.37677	-190.45184	22.67158	369.85712	190.97849	153.38907	373.13733	68.33307	1094.77222	-645.02515	-52.75657	565.31085	-391.81668	106.51262	564.24902	-389.96771	-65.30569	573.79376	554.25464	91.64404	565.99274	557.43524	
3487	34.860	-169.38167	141.42813	-258.45300	206.82420	7.31093	-248.31519	-191.92790	23.78791	369.52856	193.46181	155.56766	373.25861	68.78525	1094.35217	-645.25806	-52.68675	565.33801	-392.32681	107.21117	563.91748	-389.98575	-65.53228	573.97168	554.04150	91.76123	566.21716	557.36713	
3488	34.870	-168.44403	140.58926	-258.11060	206.61453	7.07853	-248.29552	-191.91646	23.88091	369.33356	195.56474	154.87888	373.50171	69.11175	1093.47693	-645.61389	-51.68064	565.16608	-392.32776	108.16476	563.84430	-389.76956	-65.69006	574.06982	553.94995	91.48137	566.45374	557.30518	
3489	34.880	-167.21336	137.63991	-257.68347	206.48964	6.97572	-248.28520	-192.42186	24.17807	369.14157	197.11819	151.78065	374.03888	69.91143	1092.88721	-645.96936	-51.08504	565.05713	-392.45151	109.18726	563.76971	-389.89093	-65.80067	574.13525	553.83185	91.34131	566.56726	557.23212	
3490	34.890	-164.88252	133.26404	-257.59286	206.31123	6.89657	-248.36693	-192.38522	24.06030	369.05042	198.29680	147.80513	374.59039	71.00136	1092.62415	-645.80817	-50.27398	564.60394	-392.01352	109.52309	563.68567	-389.99619	-65.83501	574.35327	553.88361	91.06269	566.69574	557.24463	
3491	34.900	-163.26845	128.63846	-257.74164	205.97385	6.73522	-248.52716	-192.36331	23.95905	369.07358	198.83496	142.90268	375.38943	72.09196	1092.56384	-645.79700	-49.63039	564.30054	-391.99893	109.44325	563.42627	-389.83014	-65.85394	574.49908	553.86841	91.11732	566.90924	557.26770	
3492	34.910	-161.80145	122.84613	-258.09476	205.76364	6.54156	-248.55275	-192.53746	23.92189	369.06274	199.44373	137.17093	376.28049	72.87862	1092.82080	-645.88562	-48.97469	563.98529	-392.04614	110.48452	563.30432	-389.84753	-65.77522	574.72192	553.83167	91.19270	567.17432	557.29291	
3493	34.920	-161.10815	116.16491	-258.08347	205.35345	6.16558	-248.47284	-192.87325	24.10875	369.02032	200.78827	130.85367	377.13162	73.33179	1092.88220	-645.90027	-49.57599	564.41614	-392.63724	110.21716	563.04395	-389.73203	-65.68174	574.96930	553.94666	91.17072	567.38403	557.42163	
3494	34.930	-160.51718	108.59946	-257.77615	205.08580	6.02372	-248.49785	-193.44489	24.43014	369.02658	202.16064	123.48071	377.85696	74.18393	1092.75000	-645.66064	-49.11274	564.30719	-392.62433	111.35796	562.85944	-389.03760	-65.77837	575.08942	554.07837	91.06606	567.41364	557.52832	
3495	34.940	-159.95865	100.10540	-256.91785	204.80757	5.91563	-248.55037	-193.83533	24.45639	369.03476	203.14204	115.38821	378.54575	74.63718	1092.51318	-645.54016	-48.28105	564.11200	-392.22266	111.64731	562.86725	-388.84985	-66.21111	574.97412	554.10107	90.86974	567.30151	557.77087	
3496	34.950	-159.02829	91.14014	-256.04144	204.41878	5.82738	-248.46890	-194.45097	24.37500	368.87491	204.81697	106.82468	379.48325	75.11098	1092.08447	-645.42712	-47.77990	563.93842	-391.87469	112.16493	562.79211	-388.41934	-66.73236	574.77966	554.22614	90.54308	567.09625	558.02136	
3497	34.960	-157.56827	81.57377	-255.19881	203.97534	5.70852	-248.41078	-194.87791	24.54064	368.73019	205.08813	97.58501	380.29807	75.47798	1091.67932	-645.29565	-47.46145	563.77289	-391.83099	113.14232	562.77753	-388.43878	-66.83775	574.85028	554.54791	90.43188	566.98468	558.37183	
3498	34.970	-156.25119	72.17105	-254.39207	203.42178	5.58860	-248.44727	-194.71085	24.46853	368.71268	205.90260	89.12306	381.22806	75.96452	1091.56775	-645.13861	-47.12988	563.83429	-391.72891	113.37881	562.69867	-388.30780	-66.90861	574.93787	554.84491	90.50324	567.08643	558.80377	
3499	34.980	-155.12987	62.93719	-253.67117	202.77641	5.40158	-248.44214	-195.71454	25.08041	368.48001	206.12595	80.74146	382.11050	76.86306	1091.76978	-644.73047	-46.97132	563.94257	-391.34427	113.74227	562.60193	-387.95398	-66.85235	575.02209	555.09784	90.53809	567.11920	559.06219	
3500	34.990	-154.16243	53.61726	-252.75620	202.26024	5.16215	-248.45488	-196.52977	25.23347	368.42612	205.95906	72.22700	382.68448	77.94631	1091.76184	-644.22571	-46.66203	563.92621	-391.17905	114.27401	562.43195	-387.34476	-66.00970	575.54309	556.89581	90.52789	567.13104	559.39532	
3501	35.000	-154.07733	44.92587	-252.11200	201.93001	4.95808	-248.50340	-197.13470	25.52980	368.50250	206.19188	63.68844	383.45206	78.34478	1091.90271	-643.68811	-45.84842	563.53735	-390.65802	114.56174	562.26929	-386.98859	-66.86091	574.87781	555.80200	90.34026	567.03210	559.81201	
3502	35.010	-154.14972	36.58241	-251.37770	201.84135	4.92684	-248.47189	-197.43788	25.53495	368.46729	207.20134	55.97604	384.24796	78.92783	1091.88892	-643.15356	-45.57386	563.32935	-390.26324	114.45631	561.99347	-386.53287	-66.80425	574.78619	556.04230	90.08201	566.94769	560.22974	
3503	35.020	-154.32518	28.66296	-250.29436	201.51134	4.80103	-248.51300	-197.82155	25.65043	368.31958	207.21062	48.51104	384.85986	79.40251	1091.76807	-642.75610	-45.32111	563.30621	-390.14777	114.73857	561.98096	-386.22064	-66.86785	574.59863	556.26050	90.14066	566.79266	560.47510	
3504	35.030	-154.12213	21.57480	-249.47672	200.88222	4.67409	-248.54070	-198.06003	25.66467	368.26740	207.44997	41.92503	385.12292	79.59502	1091.53369	-642.39612	-44.94965	563.50189	-389.82285	115.17521	561.95313	-385.59225	-66.79802	574.49463	556.72559	90.29357	566.71521	560.96320	
3505	35.040	-153.61221	15.28203	-248.90741	200.00853	4.48294	-248.52113	-198.87166	25.99341	368.31311	207.31833	35.53852	385.26181	79.80221	1091.29626	-642.07581	-44.41247	563.50311	-389.28870	115.65659	561.98480	-384.89627	-66.69895	574.46021	557.12689	90.30190	566.46820	561.47864	
3506	35.050	-153.72708	10.09414	-248.83994	199.46782	4.32991	-248.65309	-199.52980	26.12276	368.33548	207.31197	32.99268	384.13501	80.39620	1091.06091	-641.80640	-44.06194	563.33563	-388.89966	115.93027	561.99585	-384.70251	-66.28122	574.59558	557.65997	90.49513	566.45782	561.83197	
3507	35.060	-155.57698	9.91687	-251.42368	198.95633	4.10847	-248.52490	-199.98378	26.29605	368.25058	207.82188	31.28125	383.64951	81.18770	1091.10693	-641.32996	-43.64368	563.19122	-388.47324	116.98817	561.90601	-384.46033	-66.36340	575.00543	558.12933	90.27809	567.02930	562.13055	
3508	35.070	-156.53915	7.33475	-250.50841	198.53877	4.06113	-248.28369	-200.16907	26.58398	368.33273	207.78070	31.72965	383.98657	81.60966	1091.32776	-641.05688	-42.26633	563.33643	-387.66510	117.35619	562.16730	-384.03299	-66.61681	576.10535	558.17932	89.76842	568.25354	562.70996	
3509	35.080	-156.86855	7.91575	-250.30179	197.84235	4.21673	-248.02461	-200.24101	27.02670	368.46524	206.46007	31.87569	383.84286	81.91005	1091.92761	-641.29901	-42.35629	564.68768	-387.47061	117.34853	563.02338	-383.01358	-66.43347	577.56549	559.22168	90.41233	569.47473	563.40112	
3510	35.090	-157.08069	7.94752	-251.10452	197.58214	6.22868	-248.62523	-200.61427	29.19984	367.60052	206.04495	31.43433	385.31082	82.54546	1092.46692	-641.47778	-41.21131	565.96088	-386.46585	118.13103	564.18799	-382.58267	-66.64273	578.34833	559.43500	90.27105	570.47968	563.74719	
3511	35.100	-156.96147	8.27646	-249.95520	195.16177	10.06347	-246.57610	-198.32211	32.90802	368.08801	205.65144	30.86772	384.15063	84.16062	1093.10901	-640.94208	-41.91133	567.59222	-386.85394	118.01737	565.67169	-382.20618	-66.80060	578.87439	559.66821	90.31168	571.03833	564.04315	
3512	35.110	-157.42963	8.23552	-251.11034	191.87555	14.69758	-242.74335	-194.91702	36.71194	372.33209	205.16849	30.97283	383.72137	85.32996	1093.95374	-639.90100	-41.03582	568.18457	-386.24658	118.24786	566.06976	-382.00061	-66.82221	579.40100	559.64264	90.39895	571.53210	564.08514	
3513	35.120	-158.56921	8.28971	-251.27676	190.47343	24.21032	-241.23657	-190.51620	47.03670	373.07114	204.43272	31.01007	384.15271	87.01937	1095.76892	-638.96490	-40.92851	568.35712	-386.36649	118.51893	566.00250	-381.90140	-66.70726	580.05890	559.47052	90.53987	571.72943	564.10834	
3514	35.130	-159.31435	7.17622	-251.05396	189.36069	34.85064	-240.03520	-188.34438	57.06231	373.28784	203.80659	31.27633	383.93985	88.01684	1097.66406	-638.56012	-41.02878	568.06531	-386.14035	118.33656	565.70892	-382.01059	-65.99191	580.68298	560.22662	91.22411	572.14325	564.33722	
3515	35.140	-159.82098	7.32522	-251.15103	189.79326	46.56112	-239.98669	-188.49185	69.91078	372.84988	203.28911	31.20325	384.24304	88.32208	1098.33789	-638.43658	-41.29971	567.80603	-386.11514	118.47012	565.45880	-382.18359	-65.22190	580.95502	560.01044	91.75404	572.39972	564.54620	
3516	35.150	-160.41721	7.54350	-250.61057	191.79733	58.87300	-240.73354	-190.07147	83.30657	371.65182	202.60173	30.92653	384.10153	88.50801	1097.54712	-638.33801	-41.41578	567.38763	-385.72296	118.14249	565.09216	-382.09955	-64.91125	580.84314	560.09772	92.34128	572.15363	564.69055	
3517	35.160	-161.14993	7.13975	-250.66628	194.63234	71.80164	-241.82782	-191.65514	96.86933	371.18961	201.93895	30.78718	383.92892	88.23299	1095.80127	-638.59937	-42.84507	567.38556	-385.87109	117.73668	564.52118	-382.08087	-64.21502	580.60571	560.69342	93.12506	571.81598	564.81476	
3518	35.170	-162.13144	7.11282	-250.59192	197.73918	84.28548	-242.80354	-191.30821	109.25768	371.16357	201.41823	30.85898	383.89243	87.67953	1093.65723	-639.25116	-42.16502	566.71051	-385.18600	117.30878	563.87329	-382.22562	-63.58729	580.20288	561.03149	93.82169	571.15784	565.06628	
3519	35.180	-162.68604	6.70358	-250.83389	200.10841	96.69260	-243.80548	-189.82501	121.38733	370.81470	200.76157	30.87641	383.88748	86.92513	1092.01074	-640.21906	-42.44696	565.90149	-384.96024	116.43374	563.05090	-381.95657	-63.05675	580.02826	560.93475	94.55588	570.88837	565.23285	
3520	35.190	-163.77530	6.71519	-250.61667	201.92546	108.22245	-244.51517	-187.83083	132.76184	371.02954	199.88278	30.60322	383.79837	86.41719	1090.50049	-640.92279	-43.92593	565.69092	-385.33423	116.38076	562.08752	-382.08487	-62.06113	580.32385	561.14087	95.12975	571.05243	565.22900	
